subject_06
version=1
nRows=255
nColumns=3
inDegrees=yes
endheader
time	r_shoulder_elev	r_elbow_flex
0.0000	15.949024	21.057473
0.0100	15.949024	21.058411
0.0200	15.949024	21.060799
0.0300	15.949024	21.065953
0.0400	15.949024	21.075440
0.0500	15.949024	21.091094
0.0600	15.949024	21.114889
0.0700	15.949024	21.148730
0.0800	15.949024	21.194253
0.0900	15.949024	21.252707
0.1000	15.949024	21.324938
0.1100	15.949024	21.411468
0.1200	15.949024	21.512651
0.1300	15.949024	21.628863
0.1400	15.949024	21.760695
0.1500	15.949024	21.909092
0.1600	15.949024	22.075417
0.1700	15.949024	22.261376
0.1800	15.949024	22.468803
0.1900	15.949024	22.699336
0.2000	15.949024	22.954084
0.2100	15.949024	23.233394
0.2200	15.949024	23.536831
0.2300	15.949024	23.863412
0.2400	15.949024	24.212036
0.2500	15.949024	24.581971
0.2600	15.949024	24.973215
0.2700	15.949024	25.386596
0.2800	15.949024	25.823579
0.2900	15.949024	26.285856
0.3000	15.949024	26.774891
0.3100	15.949024	27.291574
0.3200	15.949024	27.836114
0.3300	15.949024	28.408129
0.3400	15.949024	29.006845
0.3500	15.949024	29.631286
0.3600	15.949024	30.280349
0.3700	15.949024	30.952824
0.3800	15.949024	31.647437
0.3900	15.949024	32.363038
0.4000	15.949024	33.098963
0.4100	15.949024	33.855454
0.4200	15.949024	34.633910
0.4300	15.949024	35.436717
0.4400	15.949024	36.266576
0.4500	15.949024	37.125424
0.4600	15.949024	38.013341
0.4700	15.949024	38.927919
0.4800	15.949024	39.864482
0.4900	15.949024	40.817252
0.5000	15.949024	41.781147
0.5100	15.949024	42.753573
0.5200	15.949024	43.735480
0.5300	15.949024	44.731158
0.5400	15.949024	45.746711
0.5500	15.949024	46.787701
0.5600	15.949024	47.856827
0.5700	15.949024	48.952548
0.5800	15.949024	50.069247
0.5900	15.949024	51.198936
0.6000	15.949024	52.333867
0.6100	15.949024	53.469077
0.6200	15.949024	54.603861
0.6300	15.949024	55.741629
0.6400	15.949024	56.888224
0.6500	15.949024	58.049389
0.6600	15.949024	59.228404
0.6700	15.949024	60.424779
0.6800	15.949024	61.634446
0.6900	15.949024	62.851272
0.7000	15.949024	64.069190
0.7100	15.949024	65.284070
0.7200	15.949024	66.494636
0.7300	15.949024	67.702192
0.7400	15.949024	68.909414
0.7500	15.949024	70.118836
0.7600	15.949024	71.331657
0.7700	15.949024	72.547287
0.7800	15.949024	73.763650
0.7900	15.949024	74.977956
0.8000	15.949024	76.187510
0.8100	15.949024	77.390231
0.8200	15.949024	78.584781
0.8300	15.949024	79.770431
0.8400	15.949024	80.946886
0.8500	15.949024	82.114196
0.8600	15.949024	83.272745
0.8700	15.949024	84.423139
0.8800	15.949024	85.565845
0.8900	15.949024	86.700599
0.9000	15.949024	87.825812
0.9100	15.949024	88.938376
0.9200	15.949024	90.034167
0.9300	15.949024	91.109270
0.9400	15.949024	92.161528
0.9500	15.949024	93.191701
0.9600	15.949024	94.203562
0.9700	15.949024	95.202588
0.9800	15.949024	96.193568
0.9900	15.949024	97.178039
1.0000	15.949024	98.152717
1.0100	15.949024	99.109850
1.0200	15.949024	100.039632
1.0300	15.949024	100.933910
1.0400	15.949024	101.789684
1.0500	15.949024	102.610791
1.0600	15.949024	103.406815
1.0700	15.949024	104.189389
1.0800	15.949024	104.967252
1.0900	15.949024	105.742137
1.1000	15.949024	106.507359
1.1100	15.949024	107.249942
1.1200	15.949024	107.955638
1.1300	15.949024	108.614812
1.1400	15.949024	109.226708
1.1500	15.949024	109.800105
1.1600	15.949024	110.349898
1.1700	15.949024	110.890873
1.1800	15.949024	111.431282
1.1900	15.949024	111.969011
1.2000	15.949024	112.492139
1.2100	15.949024	112.983818
1.2200	15.949024	113.429497
1.2300	15.949024	113.823407
1.2400	15.949024	114.171444
1.2500	15.949024	114.489069
1.2600	15.949024	114.794994
1.2700	15.949024	115.103297
1.2800	15.949024	115.417362
1.2900	15.949024	115.728332
1.3000	15.949024	116.018830
1.3100	15.949024	116.270435
1.3200	15.949024	116.471742
1.3300	15.949024	116.623520
1.3400	15.949024	116.738748
1.3500	15.949024	116.837489
1.3600	15.949024	116.938808
1.3700	15.949024	117.053222
1.3800	15.949024	117.178890
1.3900	15.949024	117.303125
1.4000	15.949024	117.408455
1.4100	15.949024	117.480519
1.4200	15.949024	117.514344
1.4300	15.949024	117.516350
1.4400	15.949024	117.501403
1.4500	15.949024	117.486423
1.4600	15.949024	117.483551
1.4700	15.949024	117.495937
1.4800	15.949024	117.517914
1.4900	15.949024	117.539215
1.5000	15.949024	117.550438
1.5100	15.949024	117.547639
1.5200	15.949024	117.534777
1.5300	15.949024	117.521242
1.5400	15.949024	117.516575
1.5500	15.949024	117.525150
1.5600	15.949024	117.543525
1.5700	15.949024	117.561859
1.5800	15.949024	117.568785
1.5900	15.949024	117.557413
1.6000	15.949024	117.529471
1.6100	15.949024	117.495426
1.6200	15.949024	117.470255
1.6300	15.949024	117.466673
1.6400	15.949024	117.488901
1.6500	15.949024	117.529965
1.6600	15.949024	117.573998
1.6700	15.949024	117.602740
1.6800	15.949024	117.603472
1.6900	15.949024	117.574843
1.7000	15.949024	117.527536
1.7100	15.949024	117.478811
1.7200	15.949024	117.445637
1.7300	15.949024	117.436882
1.7400	15.949024	117.448583
1.7500	15.949024	117.464775
1.7600	15.949024	117.463594
1.7700	15.949024	117.426012
1.7800	15.949024	117.343393
1.7900	15.949024	117.220559
1.8000	15.949024	117.073009
1.8100	15.949024	116.919502
1.8200	15.949024	116.773242
1.8300	15.949024	116.635507
1.8400	15.949024	116.494501
1.8500	15.949024	116.329924
1.8600	15.949024	116.121282
1.8700	15.949024	115.856364
1.8800	15.949024	115.536263
1.8900	15.949024	115.174822
1.9000	15.949024	114.792778
1.9100	15.949024	114.409073
1.9200	15.949024	114.032951
1.9300	15.949024	113.660042
1.9400	15.949024	113.273923
1.9500	15.949024	112.852369
1.9600	15.949024	112.375705
1.9700	15.949024	111.833923
1.9800	15.949024	111.229946
1.9900	15.949024	110.578038
2.0000	15.949024	109.898295
2.0100	15.949024	109.209522
2.0200	15.949024	108.523167
2.0300	15.949024	107.840294
2.0400	15.949024	107.152237
2.0500	15.949024	106.444229
2.0600	15.949024	105.700377
2.0700	15.949024	104.908274
2.0800	15.949024	104.061957
2.0900	15.949024	103.162783
2.1000	15.949024	102.218448
2.1100	15.949024	101.240792
2.1200	15.949024	100.243067
2.1300	15.949024	99.237163
2.1400	15.949024	98.231180
2.1500	15.949024	97.227665
2.1600	15.949024	96.222885
2.1700	15.949024	95.207516
2.1800	15.949024	94.168852
2.1900	15.949024	93.094239
2.2000	15.949024	91.974887
2.2100	15.949024	90.808885
2.2200	15.949024	89.602312
2.2300	15.949024	88.367887
2.2400	15.949024	87.121460
2.2500	15.949024	85.877485
2.2600	15.949024	84.645014
2.2700	15.949024	83.425599
2.2800	15.949024	82.213733
2.2900	15.949024	80.999465
2.3000	15.949024	79.772042
2.3100	15.949024	78.523161
2.3200	15.949024	77.248791
2.3300	15.949024	75.949267
2.3400	15.949024	74.628211
2.3500	15.949024	73.291186
2.3600	15.949024	71.944865
2.3700	15.949024	70.596896
2.3800	15.949024	69.255952
2.3900	15.949024	67.931146
2.4000	15.949024	66.630256
2.4100	15.949024	65.356965
2.4200	15.949024	64.108210
2.4300	15.949024	62.873192
2.4400	15.949024	61.635262
2.4500	15.949024	60.376852
2.4600	15.949024	59.086091
2.4700	15.949024	57.762676
2.4800	15.949024	56.420341
2.4900	15.949024	55.084267
2.5000	15.949024	53.783700
2.5100	15.949024	52.542111
2.5200	15.949024	51.368526
2.5300	15.949024	50.253558
2.5400	15.949024	49.172086
